<?xml version="1.0" encoding="UTF-8"?>
<svg data-bbox="0 0 1005 1005" xmlns="http://www.w3.org/2000/svg" viewBox="0 0 1000 1000" height="1000" width="1000" data-type="color">
    <g>
        <g clip-path="url(#4e8e10c3-cbd3-49c6-8955-38f57a05a0e9)">
            <path fill="#29317D" d="M1000 500c0 276.142-223.858 500-500 500S0 776.142 0 500 223.858 0 500 0s500 223.858 500 500z" data-color="1"/>
            <path fill="#ffffff" d="M810 502.5C810 675.089 670.089 815 497.5 815S185 675.089 185 502.5 324.911 190 497.5 190 810 329.911 810 502.5z" data-color="2"/>
            <mask fill="#ffffff" id="dc95f81a-86df-4f46-9078-1aff6e44c172">
                <path d="M502.5 990C771.739 990 990 771.739 990 502.5 990 233.261 771.739 15 502.5 15 233.261 15 15 233.261 15 502.5 15 771.739 233.261 990 502.5 990Zm-5-160C678.373 830 825 683.373 825 502.5S678.373 175 497.5 175 170 321.627 170 502.5 316.627 830 497.5 830Z" clip-rule="evenodd" fill-rule="evenodd"/>
            </mask>
            <path mask="url(#dc95f81a-86df-4f46-9078-1aff6e44c172)" fill="#ffffff" d="M975 502.5C975 763.455 763.455 975 502.5 975v30c277.523 0 502.5-224.977 502.5-502.5h-30ZM502.5 30C763.455 30 975 241.545 975 502.5h30C1005 224.977 780.023 0 502.5 0v30ZM30 502.5C30 241.545 241.545 30 502.5 30V0C224.977 0 0 224.977 0 502.5h30ZM502.5 975C241.545 975 30 763.455 30 502.5H0C0 780.023 224.977 1005 502.5 1005v-30ZM810 502.5C810 675.089 670.089 815 497.5 815v30C686.657 845 840 691.657 840 502.5h-30ZM497.5 190C670.089 190 810 329.911 810 502.5h30C840 313.342 686.657 160 497.5 160v30ZM185 502.5C185 329.911 324.911 190 497.5 190v-30C308.342 160 155 313.342 155 502.5h30ZM497.5 815C324.911 815 185 675.089 185 502.5h-30C155 691.657 308.342 845 497.5 845v-30Z" data-color="2"/>
            <path fill="#29317D" d="M275 392.862c52.778-21.969 118.75-19.14 145.139-14.979L465 627.525c-78.111-21.968-159.213 2.496-190 17.475V392.862Z" data-color="1"/>
            <path fill="#29317D" d="M725 392.862c-52.778-21.969-118.75-19.14-145.139-14.979L535 627.525c78.111-21.968 159.213 2.496 190 17.475V392.862Z" data-color="1"/>
            <path fill="#29317D" d="M499.513 735c-1.404-7.337-2.721-13.828-3.863-20.413-2.634-14.863-5.356-29.726-7.902-44.589a3090.318 3090.318 0 0 1-6.849-41.296 42926.532 42926.532 0 0 0-6.848-42.237c-2.02-12.511-3.864-25.023-5.883-37.534-2.02-12.699-4.039-25.304-6.059-38.004-1.931-12.135-3.863-24.364-5.795-36.499-1.931-12.323-3.863-24.646-5.883-36.969-1.931-12.323-3.951-24.646-5.97-36.969-2.283-14.11-4.478-28.221-6.937-42.237-.439-2.728-.175-4.703 1.581-6.679 1.141-1.317 2.107-2.728 3.249-4.233-.703-1.599-1.405-3.01-2.02-4.515-2.722-6.397-4.829-12.982-5.268-20.037-.527-9.125 2.107-16.933 7.814-23.611 1.23-1.411 2.459-2.823 3.776-4.234 6.761-7.807 7.112-18.249.966-26.527-1.23-1.693-2.634-3.104-3.864-4.798-.702-.94-1.668-1.975-1.229-3.668 9.746-1.223 16.858 4.327 23.707 10.535.878-1.222.176-2.163-.176-2.916-.878-2.069-1.931-4.045-3.073-6.02-3.863-7.149-5.18-14.863-4.829-22.953.176-3.481 1.054-6.773 2.898-9.595 5.97-9.125 14.048-15.145 23.97-18.155.088 0 .263.094.439.094.702.752 0 1.505-.088 2.163-.088.753-.351 1.599-.527 2.352-1.141 5.268-1.756 10.536-.439 15.898.703 2.822 1.756 5.456 3.425 7.902 3.336 4.703 7.287 8.654 11.853 12.04.351.283.79.377 1.141.565.966-.565.527-1.411.439-2.164-.526-4.703-.79-9.407-.526-14.11.614-8.56 4.214-15.145 11.063-19.661 5.005-3.198 10.448-4.985 16.682-5.926-.878 1.693-1.492 3.01-2.107 4.233-1.317 2.54-2.722 5.08-3.951 7.62a26.094 26.094 0 0 0-1.844 4.985c-1.756 6.303-.79 11.947 3.776 16.557 2.897 2.916 5.092 6.396 6.848 10.253 2.371 5.08 2.634 10.254 1.054 15.616-.702 2.445-1.493 4.891-2.283 7.619 3.161-2.163 4.741-4.703 5.356-8.56.176-1.129.176-2.258.264-3.387.175-1.787.526-3.48.702-5.079 1.141-.753 1.844-.094 2.634.376 6.146 3.669 8.868 9.595 9.307 16.838.351 4.892-.175 9.689-1.493 14.487-.965 3.292-1.58 6.585-1.58 10.065 0 3.105.79 5.739 2.546 8.09 1.23 1.599 2.634 3.199 3.951 4.704 2.81 3.01 4.215 6.585 4.83 10.818 1.141 7.807-.088 14.863-4.566 21.165-.176.282-.264.565-.439 1.223.527.376 1.141.753 1.756 1.035 2.107.847 4.302 1.505 6.673 2.352 0 1.223.176 2.54 0 3.762a38022.06 38022.06 0 0 0-5.795 39.039c-1.668 11.194-3.337 22.483-5.005 33.677-1.932 12.699-3.863 25.305-5.795 38.004-2.019 12.793-4.039 25.681-6.058 38.474-1.932 12.699-3.951 25.305-5.883 38.004-2.02 12.793-3.951 25.681-5.971 38.474-2.634 17.027-5.268 33.959-7.902 50.986-2.458 15.709-4.917 31.419-7.639 47.034-2.985 17.215-6.146 34.43-9.307 51.738 0 1.223-.439 2.54-1.054 4.798Zm-33.628-363.201c.527 5.55.966 10.348 1.405 15.239.702 7.62 1.405 15.239 2.107 22.765 1.054 11.194 2.195 22.294 3.249 33.489l2.107 22.294c1.054 10.818 2.195 21.636 3.249 32.454 1.053 11.194 2.107 22.294 3.161 33.488 1.141 11.759 2.282 23.612 3.424 35.37l2.107 22.859c1.054 11.853 2.195 23.612 3.249 35.464.79 8.749 1.405 17.497 2.195 26.246 1.141 12.981 2.195 25.869 3.424 38.85.791 7.902 1.844 15.804 2.898 23.706.175 1.411.614 2.822.966 4.233.087.188.439.282.614.376 1.054-.47.966-1.505 1.054-2.446a466.043 466.043 0 0 0 1.58-15.521c.791-8.278 1.493-16.462 2.195-24.74 1.142-12.606 2.283-25.211 3.425-37.91.702-8.09 1.317-16.18 2.019-24.27 1.142-12.605 2.195-25.211 3.337-37.91.702-8.56 1.405-17.121 2.195-25.775.79-8.748 1.668-17.497 2.458-26.245.703-7.808 1.405-15.522 2.108-23.329.79-8.937 1.668-17.779 2.458-26.716.702-7.902 1.405-15.898 2.107-23.8 1.142-12.417 2.195-24.928 3.337-37.345.878-9.689 1.668-19.472 2.458-29.161.176-1.976.264-3.857.351-5.833.088-1.881 0-3.763 0-6.02-21.775-.282-43.199-.188-65.237.188Zm-4.566-25.587a79.44 79.44 0 0 1-1.844-3.951c-1.756-4.233-1.844-8.466 0-12.699.79-1.881 1.668-3.857 2.546-5.738 2.02-4.422 3.161-9.125 3.249-14.111 0-.47.176-.94.264-1.317.175 0 .439-.094.526-.094 5.356 3.293 8.517 8.184 8.605 14.957v3.387c0 1.223-.351 2.446.088 4.045 7.99-6.773 12.205-15.145 11.766-25.869-.176-3.763-.703-7.432-1.054-11.195-.088-.752-.439-1.599.615-2.163 6.146 2.446 9.746 7.714 12.643 13.922 1.317-1.129 1.229-2.446 1.317-3.669.088-1.128.088-2.257.176-3.386.088-1.223-.264-2.54.439-3.951 2.195 1.035 3.6 2.728 5.005 4.421 2.985 3.669 4.917 7.808 4.653 12.888-.175 2.916-.439 5.832-.614 8.748-.176 2.258-.352 4.516-.352 6.773 0 2.634.791 5.08 2.547 7.243 5.707 1.129 10.448-.658 14.136-5.55 1.405-1.881 2.634-3.95 3.951-5.926.527-.752 1.054-1.411 1.932-2.446 2.985 5.456 4.565 10.63 3.161 16.556-.878 3.763-2.634 6.867-4.83 9.878-.526.658-.877 1.505-1.229 2.257.439.283.527.377.703.377.439 0 .878-.094 1.317-.094 7.814-.377 13.082-4.892 16.068-12.324 2.985-7.431.614-14.016-3.6-20.036-.79-1.129-1.932-2.07-2.898-3.104-2.546-2.54-3.336-5.739-2.809-9.313.351-2.258.702-4.516 1.141-6.679.615-3.387 1.317-6.679 1.932-10.066.527-3.01.79-6.02-.615-9.313a99.775 99.775 0 0 0-11.853 14.393c-1.581 2.446-2.459 5.174-2.722 8.184-.351 2.916-.615 5.832-.176 8.749.264 2.257.351 4.421.527 6.678-.439.094-.615.189-.702.189-.44-.189-.878-.283-1.23-.565-3.951-2.728-6.761-6.491-8.341-11.288-1.668-4.892-1.317-9.877-.527-14.957.79-4.515 2.634-8.655 4.478-12.699 3.161-6.962 3.337-14.017 1.054-21.354-1.054-3.387-2.283-6.679-4.215-9.689-3.161-5.174-4.917-10.724-3.775-17.121.087-.47-.088-1.035-.176-2.352-1.054 1.6-1.756 2.446-2.195 3.387a16.653 16.653 0 0 0-1.317 7.149c.176 4.421.351 8.749.702 13.17.352 4.233.439 8.466-.439 12.605-.614 2.728-1.756 5.174-3.6 7.243-1.58 1.788-3.336 3.199-5.882 3.763 0-1.035-.088-1.787-.088-2.54-.176-4.985-2.02-9.124-5.093-12.699-1.492-1.693-3.073-3.198-4.653-4.703-2.459-2.446-4.917-4.798-7.376-7.244-4.653-4.797-7.287-10.724-7.902-17.591-.088-.658.351-1.693-.966-2.069-.702.658-1.493 1.317-2.195 2.069-3.863 4.045-5.356 8.843-4.39 14.581.702 4.233 2.195 8.184 4.127 11.759 2.458 4.421 3.775 9.218 4.741 14.11.79 3.857.966 7.714.439 11.665-.702 5.456-3.073 9.783-7.375 12.793-.615.376-1.317.564-1.932.753-.79-4.045-1.317-7.902-2.371-11.571-1.317-4.515-3.249-6.961-6.409-9.219.087 1.223.087 2.352.263 3.387 1.054 8.184-.615 15.521-5.619 21.824a51.548 51.548 0 0 0-4.303 6.302c-3.512 5.927-5.18 12.418-4.917 19.473.264 10.912 7.112 19.19 17.473 20.977Z" data-color="1"/>
            <path fill="#ffffff" d="M852.853 614.048c0 .874.098 1.846.098 2.721 0 3.886 1.173 5.344 4.988 5.344 3.717 0 7.433-.486 11.15-.778 1.663-.194 3.326-.485 5.184-.874a3541.65 3541.65 0 0 1 7.433-25.652c-4.108-3.693-8.02-7.093-12.323-9.911-3.424-2.235-5.282-1.652-7.434 1.943l-1.467 2.624c-.098.194-.587.097-.88.097-.098-.292-.489-.583-.391-.875a4505.919 4505.919 0 0 1 5.575-18.753c.097-.291.489-.388 1.075-.777.196.874.587 1.652.489 2.332-.293 2.915.979 5.247 3.033 7.19 2.054 1.944 4.205 3.984 6.357 5.733 14.476 11.757 29.049 23.514 43.622 35.272.783.68 1.663 1.166 2.348 1.943.587.583 1.271 1.36 1.271 1.943-.098 1.263-1.369 1.166-2.347 1.263-17.801 2.041-35.602 4.081-53.305 6.219-4.011.486-8.021 1.166-12.031 1.749-3.912.583-6.944 2.332-8.705 6.122-.195.388-.684.583-1.076.971-.293-.291-.684-.583-.684-.68 2.249-8.356 4.597-16.81 6.944-25.166.294-.097.685-.097 1.076 0Zm55.164 2.429c-5.575-5.539-19.953-17.004-23.279-18.656-2.249 5.733-5.673 17.976-6.162 21.863 4.011.194 23.377-1.847 29.441-3.207Z" data-color="2"/>
            <path fill="#ffffff" d="M255.54 133.364c3.326-2.429 6.651-4.761 9.977-7.19 1.173.388 1.076 1.36 1.271 2.332-.684 3.595.783 6.51 2.837 9.328 5.477 7.482 10.954 14.866 16.431 22.445 2.152 3.012 4.304 6.025 6.064 9.328 5.184 9.425 4.011 18.559-3.325 26.43-4.401 4.761-9.683 8.356-15.845 10.688-8.411 3.206-16.04 1.457-22.398-4.761-3.13-3.012-5.771-6.608-8.411-10.106-5.184-6.898-10.172-13.797-15.258-20.793-1.174-1.652-2.446-3.207-3.815-4.761-1.663-1.847-3.717-2.818-6.26-2.527-.684-.388-1.369-.68-2.054-1.069l15.258-11.077c.294.583.587 1.264.881 1.847-1.272 2.526-.978 4.858.489 7.19.782 1.263 1.663 2.526 2.543 3.789 5.868 8.065 11.639 16.13 17.605 24.001a76.577 76.577 0 0 0 8.51 9.328c4.694 4.372 10.465 4.566 16.138 2.234 6.162-2.526 10.563-7.093 13.204-13.214 1.858-4.373 1.956-8.842-.294-13.118-1.271-2.332-2.445-4.761-4.01-6.996-6.553-9.133-13.204-18.267-19.952-27.304-1.663-2.332-3.424-4.664-6.749-4.761-.783-.583-2.25.195-2.837-1.263Z" data-color="2"/>
            <path fill="#ffffff" d="M831.433 303.891c-10.368 1.166-19.757-1.069-27.093-9.036-7.042-7.676-11.052-16.421-9.683-27.013.978-7.967 4.499-14.769 10.27-20.307 6.162-6.025 13.498-9.814 22.105-11.466 18.192-3.401 36.189 8.939 39.807 26.721.196.971.294 2.04.49 3.012.782 3.012 1.76 3.789 5.086 3.595.684 0 1.271-.097 1.956-.194.098 0 .293.194.391.291 0 .292.098.778 0 .972-5.673 4.664-11.444 9.328-17.116 13.992-1.272-.972-.587-1.555-.196-2.235 1.369-2.332 2.934-4.47 4.108-6.899 7.531-15.352-6.553-33.522-22.007-31.773-2.152.194-4.401.486-6.455 1.069-10.27 3.109-19.073 8.55-25.821 16.907-9.879 12.145-5.478 27.984 5.281 36.048 3.912 2.915 8.509 4.081 13.204 4.47 1.663.097 3.424.097 5.086.292.489 0 .881.388 1.37.583-.294.194-.49.583-.783.971Z" data-color="2"/>
            <path fill="#ffffff" d="M123.695 520.865c-.684-3.11-2.738-4.47-5.966-4.178-1.174.097-2.347.097-3.521.194-7.238.68-14.476 1.263-21.713 2.04a19.902 19.902 0 0 0-5.38 1.361c-2.739 1.069-4.108 3.595-3.814 6.51.489 4.858 3.423 8.259 7.14 11.174.684.486 1.956.389 2.934.389 8.607-.68 17.214-1.361 25.723-2.235 3.619-.389 4.891-1.749 5.38-5.441.098-.778.195-1.555.489-3.401.684 1.652 1.174 2.332 1.271 3.012 1.174 6.802 1.565 17.198.881 20.502-.392-.486-.685-.874-.783-1.263-1.663-4.373-3.13-5.344-7.922-5.053-3.326.292-6.749.486-10.075.875-5.672.583-11.443 1.166-17.116 1.749-.978.097-1.956.291-2.934.68-1.76.68-2.152 1.555-2.152 3.498 0 1.069 1.272 2.138.098 3.206-.294 0-.783 0-.88-.097-1.957-3.692-4.01-7.384-5.869-11.077-.391-.874-.587-1.846-.88-2.915 2.64-1.846 5.673-.68 8.314-1.652.586-1.068-.392-1.36-.978-1.943-2.152-2.138-4.402-4.178-6.26-6.51-1.859-2.235-2.739-4.956-2.641-7.968.196-3.401 1.467-6.121 4.206-8.162 2.64-1.943 5.672-3.012 8.9-3.303 6.847-.681 13.791-1.264 20.638-1.944 2.151-.194 4.401-.388 6.553-.874 3.619-.68 4.108-1.361 4.597-4.859.098-.68.293-1.263.489-1.943 0-.097.293-.097.391-.194 1.272 2.332 1.761 5.927 1.956 13.895 0 .388.098.874.098 1.263 0 .486 0 .971.098 1.457.098.486.195.875.293 1.361 0 .583.098 1.263.098 1.846a4.788 4.788 0 0 0-1.663 0Z" data-color="2"/>
            <path fill="#ffffff" d="M158.906 664.769c0-.778-.098-1.555-.098-2.332.392-.389.783-.875 1.174-1.264 6.847 10.883 8.998 14.964 9.194 17.49-1.271 0-1.467-1.263-2.054-1.943-1.858-2.138-4.01-2.332-6.357-1.457-.979.388-1.859.874-2.739 1.36-5.869 3.304-11.737 6.607-17.508 10.105-2.151 1.263-4.205 2.818-6.064 4.47-2.347 2.138-2.738 5.15-1.173 7.87 2.543 4.47 6.846 6.316 11.639 7.288.684.097 1.662-.389 2.347-.777 7.14-4.081 14.378-8.26 21.518-12.341.684-.388 1.467-.874 2.054-1.457 1.76-1.36 2.543-3.109 1.76-5.344-.391-1.069-.684-2.138-1.076-3.207.294-.097.489-.194.587-.194.392.194.978.389 1.174.777 3.912 5.83 8.998 15.255 9.976 18.365-1.076.291-1.467-.583-1.858-1.166-1.663-2.235-3.912-2.429-6.357-1.555a23.68 23.68 0 0 0-3.228 1.458 1468.353 1468.353 0 0 0-21.029 12.145c-1.174.681-2.347 1.458-3.325 2.235-1.956 1.652-2.152 3.012-.881 5.247.489.778 1.761 1.263 1.174 2.527-.293.097-.685.291-.88.194-3.228-2.429-6.455-4.761-9.683-7.288-.88-.68-1.663-1.651-2.641-2.623 2.152-2.429 5.379-3.012 7.727-5.539a84 84 0 0 1-2.641-.68c-.782-.194-1.663-.486-2.445-.68-2.739-.874-5.38-1.943-7.629-3.789-5.575-4.47-6.358-10.786-1.956-16.422 2.054-2.623 4.792-4.275 7.531-5.927 5.771-3.401 11.737-6.704 17.507-10.202 2.054-1.166 3.815-2.721 5.673-4.081.196-.389.392-.778.587-1.263Z" data-color="2"/>
            <path fill="#ffffff" d="M167.22 329.155c-2.837 4.956-5.575 9.911-8.412 14.769-.098.195-.587.098-1.271.195.293-1.069.489-1.944.782-2.818.685-1.846.294-3.304-1.076-4.567-1.076-.972-2.249-2.04-3.521-2.818-7.042-4.081-14.084-8.065-21.126-12.048-.391-.292-.881-.486-1.37-.681-5.086-2.526-5.575-2.332-8.704 2.624-.098.097-.294.097-.685.097-.098-.291-.489-.68-.489-1.069.587-4.955.88-10.008 2.347-14.866 3.326.097 5.184 3.109 8.216 3.303.685-1.554-.195-2.915-.587-4.275-.782-2.818-.978-5.636-.684-8.453.586-5.636 4.597-9.814 9.976-10.494 2.543-.292 5.086.388 7.433 1.36 1.859.777 3.717 1.749 5.478 2.721 5.575 3.109 11.15 6.413 16.725 9.522a31.084 31.084 0 0 0 4.01 2.04c2.836 1.166 5.282.875 7.14-1.749.293-.485.88-.777 1.467-1.166.196.583.489.972.391 1.069-3.521 6.122-7.14 12.146-10.759 18.268-.097.194-.586.097-1.271.291.391-1.069.782-1.943.978-2.915.782-3.109.293-4.664-2.347-6.51-.392-.292-.881-.583-1.272-.875l-19.366-11.077c-2.249-1.263-4.499-2.234-7.14-2.623-2.641-.292-4.597.583-6.064 2.721-1.663 2.429-2.152 5.247-2.054 8.162.098 1.36.489 2.623.587 3.983.196 1.652 1.076 2.721 2.543 3.498 3.717 2.041 7.336 4.179 10.954 6.219l12.911 6.996c1.369 1.36 2.739 1.166 4.108-.097.293-.097.489-.097.782-.194.587.68.979 1.068 1.37 1.457Z" data-color="2"/>
            <path fill="#ffffff" d="M845.615 363.455c1.174 1.069 2.543 1.555 4.206 1.263 1.369-.194 2.739-.291 3.912-.68 7.825-2.526 15.649-5.053 23.376-7.676.978-.292 1.859-.68 2.837-1.069 3.227-1.458 3.423-1.846 3.032-5.83l1.271-1.263a114.088 114.088 0 0 1 9.194 10.98c-2.641 2.234-5.868 2.04-8.705 3.789.881.583 1.761 1.166 2.641 1.652 2.25 1.457 4.695 2.721 6.749 4.47 1.565 1.36 3.13 3.206 3.912 5.149 1.761 4.373 1.37 8.551-2.641 12.438-2.249 2.137-4.988 3.401-7.922 4.372-6.749 2.235-13.498 4.373-20.149 6.608-1.467.485-2.934.874-4.303 1.554-3.423 1.458-4.108 2.721-3.717 6.705v1.36c0 .097-.293.194-.391.292-.978.097-.88-.778-1.076-1.361-2.054-6.413-4.108-12.729-6.064-19.142 0-.194.293-.388.782-.971.49.777.783 1.554 1.174 2.235 1.859 3.012 3.423 3.789 6.651 2.915 2.641-.681 5.184-1.652 7.727-2.43 4.695-1.457 9.39-2.915 13.987-4.469 2.054-.68 4.107-1.555 5.966-2.624 3.814-2.235 4.597-4.761 3.13-9.036-1.468-4.178-5.086-6.608-9.096-8.259-.783-.292-2.054-.098-2.935.194-8.02 2.526-16.04 5.247-24.061 7.87-.489.195-.978.292-1.467.486-2.054.875-3.227 2.332-3.032 4.664.098 1.166.196 2.332.392 4.081-.783-.68-1.468-.874-1.565-1.263l-4.695-14.866c.098-.681.489-1.361.88-2.138Z" data-color="2"/>
            <path fill="#ffffff" d="M357.163 157.753c-5.477 2.721-10.955 5.441-17.312 7.871.489-1.069.489-1.555.782-1.749.783-.681 1.761-1.069 2.445-1.75 1.272-1.263 1.859-2.817 1.272-4.566-.293-.972-.587-1.944-1.076-2.818-3.228-6.802-6.357-13.701-9.585-20.405-.783-1.652-1.858-3.207-2.934-4.664-2.348-2.915-5.771-3.498-8.999-1.652-3.912 2.235-5.868 5.83-7.14 9.911-.293.875.098 2.041.489 2.818 3.521 7.579 7.14 15.158 10.661 22.737 1.076 2.235 2.543 3.984 5.184 4.275l2.934.875c-5.379 2.429-10.758 4.858-16.138 7.384l-1.076-1.069c2.054-1.36 2.641-3.4 2.054-5.732-.293-1.263-.684-2.624-1.271-3.79-3.423-7.385-6.945-14.769-10.466-22.154-.391-.874-.978-1.749-1.467-2.623-1.173-2.235-2.934-3.11-5.477-2.235-.587-.292-1.174-.68-1.761-.972 3.033-3.498 6.065-7.093 9.781-10.105 2.543 2.332 2.543 5.83 5.086 8.065.587-1.749 1.076-3.304 1.761-4.859 1.271-3.012 2.836-5.732 5.184-7.967 4.792-4.373 10.758-4.373 15.453-.097 2.543 2.332 4.206 5.247 5.673 8.259 2.543 5.441 5.086 10.98 7.727 16.421 1.271 2.526 2.739 4.955 4.108 7.482.391.291.685.583 1.076.777.489.389.978.68 1.467 1.069.587.486 1.076.874 1.565 1.263Z" data-color="2"/>
            <path fill="#ffffff" d="M900.094 501.626c3.326.194 6.162 0 8.998-.778 5.478-1.554 6.945-8.842 3.815-12.825-1.076-1.361-2.543-2.235-4.304-2.235-1.369 0-2.738.097-4.01 0-2.249-.195-3.814-1.847-3.912-3.887-.098-2.235 1.565-4.081 4.01-4.372 1.858-.195 3.717.097 5.38 1.165 3.129 1.944 5.281 4.665 6.357 8.163 1.565 4.955 1.663 9.91.293 14.866-1.369 4.955-4.597 7.676-9.78 8.065-6.26.388-12.52.389-18.779.583-3.326.097-6.749.194-10.075.486-3.13.291-3.912 2.137-2.151 4.761.586.777 1.271 1.555 1.858 2.332-.489.874-1.076.777-1.663.388-2.347-1.457-4.401-3.206-5.868-5.441a15.08 15.08 0 0 1-1.663-3.595c-.685-2.526.293-4.761 2.641-5.927 1.173-.583 2.543-.778 3.717-1.166.489-1.166-.294-1.652-.783-2.332-1.467-2.041-3.13-3.984-4.401-6.122-3.619-6.316-1.663-13.409 4.499-16.324 4.695-2.234 9.878-1.652 13.693 1.749 2.445 2.138 4.303 4.762 5.673 7.677 1.663 3.498 3.227 6.995 4.89 10.493.391 1.166.88 2.527 1.565 4.276Zm-3.228.097a48.998 48.998 0 0 0-4.499-10.3c-.88-1.457-1.858-2.818-3.032-3.984-2.249-2.332-4.988-3.303-8.216-2.915-6.064.583-9.096 5.733-6.553 11.272.783 1.652 1.956 3.109 2.934 4.664.783 1.263 1.957 1.749 3.424 1.749 5.281-.195 10.465-.389 15.942-.486Z" data-color="2"/>
            <path fill="#ffffff" d="M204.876 258.612c.782.486 1.271.583 1.369.777 1.369 2.721 2.054 5.733 1.663 8.745-.196 1.458-.685 2.915-1.467 4.179-1.272 2.137-3.424 2.72-5.673 2.04-1.076-.389-2.152-.972-3.619-1.555 0 3.013-.098 5.83 0 8.551.098 3.207-.88 5.927-2.837 8.454-3.129 3.983-8.02 5.247-12.715 3.303-5.183-2.137-7.922-5.927-8.313-11.563-.391-6.121 1.173-11.951 2.543-17.878.391-1.652.782-3.207 1.174-4.859-2.446-2.234-5.087-3.498-7.923-4.664-4.304-1.749-10.563 2.721-10.368 8.648.098 1.749.881 3.207 2.446 4.276 1.076.777 2.249 1.457 3.227 2.429 1.663 1.554 1.761 3.789.392 5.441-1.37 1.749-3.326 2.138-5.478.972-1.858-.972-3.13-2.527-3.912-4.47-.978-2.526-1.369-5.15-.685-7.87 1.565-6.316 5.086-11.272 10.368-15.061 3.325-2.332 6.847-2.624 10.465-.486 1.565.972 3.228 1.943 4.695 2.915 5.38 3.692 10.759 7.482 16.236 11.174 1.663 1.166 3.424 2.138 5.282 3.012 1.565.778 3.032-.291 3.13-2.04.098-1.361 0-2.721 0-4.47Zm-25.039 1.943c-1.663 3.207-1.956 6.316-2.347 9.426-.294 2.137-.294 4.372-.098 6.51.293 3.401 2.151 5.927 5.184 7.482 4.988 2.623 10.074.388 11.345-5.053.489-2.138.587-4.275.587-6.51 0-.875-.587-2.041-1.271-2.527-4.402-3.109-8.803-6.121-13.4-9.328Z" data-color="2"/>
            <path fill="#ffffff" d="M119.489 453.139c1.272.097 1.859-.097 2.25.194a16.549 16.549 0 0 1 5.771 6.899c2.347 4.956-.098 8.94-4.891 9.037-.489 0-.978.097-1.467.194-.684 1.263.489 1.846.881 2.624.978 1.749 2.249 3.4 3.129 5.149.685 1.361 1.272 2.818 1.467 4.276.979 5.538-1.075 9.911-5.672 12.34-4.695 2.429-10.857 1.555-14.476-2.235-2.25-2.332-3.912-5.053-5.086-8.065-1.467-3.789-2.739-7.579-4.108-11.368-.489-1.458-.88-2.818-1.467-4.567-2.543 0-5.086-.194-7.531 0-5.575.583-8.803 5.927-6.847 11.174.88 2.429 2.543 3.887 5.184 4.178 1.37.195 2.739.195 4.01.486 1.956.389 3.326 2.138 3.326 3.887 0 1.846-1.663 3.789-3.717 4.178-2.152.389-4.01-.389-5.673-1.555-2.739-1.943-4.597-4.469-5.575-7.579-1.565-5.344-1.076-10.591.685-15.838 1.662-4.858 5.477-7.579 10.27-7.287 4.89.194 9.78.485 14.671.777 4.597.194 9.096.583 13.693.68 1.271 0 2.836.194 3.717-1.069 1.075-1.554 0-2.818-.979-4.081-.293-.68-.684-1.263-1.565-2.429Zm-2.151 15.838c-3.424-.194-6.26-.486-9.096-.583-2.935 0-5.869-.971-9.097-.194.979 3.887 2.152 7.385 3.815 10.688.88 1.749 2.152 3.401 3.423 4.859 1.956 2.04 4.499 2.915 7.336 2.72 4.401-.291 9.781-4.081 7.14-10.591-.88-2.235-2.25-4.372-3.521-6.899Z" data-color="2"/>
            <path fill="#ffffff" d="M817.446 745.903c2.152 2.137 4.597 3.595 7.336 4.566 5.379 1.944 10.857-2.137 10.857-7.773 0-1.943-.587-3.595-2.25-4.761-1.076-.777-2.25-1.555-3.228-2.429-1.467-1.361-1.565-3.498-.489-5.053 1.174-1.749 3.424-2.429 5.38-1.457 2.249 1.166 3.521 3.012 4.401 5.344 1.174 3.303.88 6.607-.391 9.814-1.761 4.469-4.597 8.162-8.314 11.271-4.303 3.692-9.585 3.401-13.106.777-1.761-1.263-3.619-2.429-5.477-3.692-4.988-3.498-9.879-7.093-14.769-10.591-1.272-.875-2.543-1.749-3.815-2.429-2.445-1.264-3.912-.292-4.01 2.429v3.984c-.782-.778-1.663-1.264-1.76-1.847-.489-2.429-.978-4.955-1.076-7.384-.098-1.263.391-2.721.978-3.887 1.369-2.818 3.619-3.789 6.748-2.818.979.292 1.761.778 2.641 1.166 1.174-.874.685-1.943.783-2.818.098-.874 0-1.651 0-2.526 0-.972.098-2.04 0-3.012-.196-2.818.782-5.247 2.347-7.579 3.13-4.567 8.314-6.024 13.4-3.79 4.793 2.041 7.531 5.539 7.922 10.689.294 3.595 0 7.093-.782 10.494a1305.86 1305.86 0 0 0-3.326 13.312Zm-2.64-1.652c.586-2.235.978-3.693 1.369-5.15.978-3.595 1.467-7.19 1.076-10.98-.294-3.692-2.25-6.316-5.575-7.87-4.891-2.332-9.781-.195-11.053 5.052-.489 2.138-.684 4.276-.684 6.413 0 .875.489 2.041 1.173 2.624 4.402 3.401 8.803 6.413 13.694 9.911Z" data-color="2"/>
            <path fill="#ffffff" d="M130.151 385.9c-11.737-.486-19.953-5.441-25.137-14.866-6.064-10.883-.489-24.972 11.15-29.733 16.627-6.705 33.059 6.899 35.407 18.461 2.151 10.397-4.206 21.571-14.378 24.681-2.543.777-5.282 1.069-7.042 1.457Zm1.467-9.328c4.89.097 8.9-.777 11.345-2.137 6.358-3.498 7.63-11.466 2.739-16.713a15.935 15.935 0 0 0-1.956-1.652c-7.14-4.858-15.062-7.482-23.67-7.579-2.934 0-5.672.583-8.313 1.846-6.064 3.012-7.923 10.3-4.01 15.838 1.467 2.138 3.423 3.693 5.673 4.956 5.966 3.401 12.421 5.15 18.192 5.441Z" data-color="2"/>
            <path fill="#ffffff" d="M751.231 178.741c.195 7.287-2.152 12.729-6.26 17.393-4.01 4.567-8.803 7.773-14.769 9.133-14.769 3.596-28.462-8.939-26.213-23.805 1.761-11.855 8.901-19.142 20.051-22.835 11.932-3.983 26.995 5.928 27.191 19.531 0 .486.097.972 0 .583Zm-28.463 23.32c2.543.194 4.989-.875 7.043-2.721 7.335-6.413 12.421-14.089 13.888-23.806.392-2.234.098-4.275-.587-6.413-2.054-6.801-9.487-9.133-14.573-6.51-1.956.972-3.912 2.138-5.379 3.595-6.064 6.122-10.172 13.312-11.444 21.96-.391 2.526-.098 5.053.88 7.385 1.663 4.081 5.38 6.51 10.172 6.51Z" data-color="2"/>
            <path fill="#ffffff" d="M645.598 160.377v-21.766c0-4.664 0-9.425-.098-14.089 0-1.36.098-2.72 0-4.081-.195-3.886-.684-7.676-4.695-10.98 1.663 0 2.543-.194 3.13 0 5.869 2.624 11.639 5.345 17.41 8.065 0 .972-.587 1.166-1.271 1.069-.881-.097-1.663-.291-2.543-.389-1.565-.097-2.641.778-3.13 2.138-.489 1.458-.783 2.915-.783 4.373-.098 8.745 0 17.49 0 25.943 1.272.972 1.859.292 2.543-.291 6.162-5.733 12.422-11.466 18.584-17.199l1.076-1.069c2.347-2.818 2.347-3.692-.587-6.607-.196-.194-.294-.583-.391-.875 2.151-.097 8.313 2.235 12.812 4.956.294.194.294.874.587 1.652-4.303-.778-7.14 1.457-9.976 4.081-11.737 10.882-23.474 21.765-35.309 32.551-1.956 1.846-4.01 3.595-6.259 5.052-4.108 2.721-8.608 3.887-13.498 3.012-1.858-.388-3.521-1.166-4.793-2.526-1.271-1.457-1.858-3.206-1.467-5.15.489-2.623 3.228-4.178 5.771-3.401 1.956.681 3.423 2.138 4.89 3.498 2.641 2.43 4.206 2.624 7.336.972 1.174-.583 2.25-1.457 3.325-2.332 2.446-2.04 4.891-4.275 7.336-6.607Z" data-color="2"/>
            <path fill="#ffffff" d="M866.35 341.787c-4.792-9.328-9.682-18.656-14.475-27.887-7.727 2.526-13.302 9.133-14.084 16.518-.978 9.717 6.064 16.421 13.986 15.935 1.174-.097 2.348.098 4.01.292-.782.777-1.173 1.457-1.663 1.555-5.086 1.457-10.074 1.068-14.866-.778-8.118-3.109-12.813-12.34-10.661-21.085 1.271-5.441 4.401-9.814 8.9-13.117 4.499-3.304 9.585-5.636 15.16-6.705 10.661-1.943 21.127 4.275 24.159 14.575 2.445 8.745-2.25 18.073-10.466 20.697Zm-11.639-29.345c2.739 6.996 7.434 15.838 10.172 18.948 1.467-1.069 3.032-2.041 4.304-3.304 3.521-3.692 3.717-9.328.489-13.312-3.326-4.178-9.879-5.15-14.965-2.332Z" data-color="2"/>
            <path fill="#ffffff" d="M482.161 101.979c-10.661.972-21.028 1.847-31.494 2.818-.782 2.818 0 5.15.783 7.579 1.564 4.859 4.303 8.745 8.704 11.369 7.727 4.567 16.628 1.943 20.442-6.122.587-1.166 1.076-2.429 1.956-4.275.392 1.263.783 1.846.783 2.332-.587 5.538-2.934 10.397-7.042 14.089-5.673 5.15-12.324 5.927-19.366 3.012-4.695-1.943-8.216-5.344-10.466-9.814-3.814-7.773-4.303-15.838-1.76-24 2.641-8.55 11.052-14.38 20.05-14.38 9.488-.098 16.53 6.801 17.41 17.392Zm-32.276-.097c7.433-.583 14.573-.874 21.909-2.04-.392-1.846-.587-3.498-1.174-5.053-2.152-5.83-9.39-8.356-14.671-5.053-4.402 2.721-6.162 6.802-6.064 12.146Z" data-color="2"/>
            <path fill="#ffffff" d="M118.316 595.003c.978-.583 1.467-1.263 2.054-1.263 6.357-.292 12.128 1.36 16.921 5.538 5.477 4.761 7.14 13.506 4.205 20.405-2.249 5.15-5.966 8.94-10.954 11.369-5.673 2.818-11.737 4.275-18.192 3.789-11.248-1.069-19.17-9.814-19.268-20.405-.098-6.024 2.543-10.688 7.433-14.089 1.761-1.166 3.814-2.04 6.162-3.206.587 1.554 1.174 2.623 1.565 3.886l7.042 24.195c.293.971.587 1.846 1.076 3.012 4.303-.777 7.824-2.624 10.954-5.247 2.837-2.332 4.695-5.247 5.771-8.648 2.641-8.162-1.565-15.741-9.781-17.976-1.565-.486-3.032-.874-4.988-1.36Zm-4.89 34.008c-2.25-7.19-3.815-13.992-6.26-20.696-1.076.291-1.858.486-2.641.874a15.96 15.96 0 0 0-2.249 1.069c-5.087 3.207-6.456 10.397-2.543 14.867 3.521 3.983 7.922 5.247 13.693 3.886Z" data-color="2"/>
            <path fill="#ffffff" d="M744.971 222.272c2.347.194 4.303-.486 5.966-2.041 1.467-1.36 2.934-2.817 4.401-4.178 6.26-6.413 12.422-12.826 18.584-19.239.489-.486.88-.971 1.467-1.749-2.054-2.04-4.01-3.984-6.162-6.218.685-.778 1.174-1.361 1.663-1.944.587.195 1.076.195 1.467.486 1.858 1.652 3.717 3.401 5.575 5.15 1.174-1.166 2.054-2.138 3.13-3.012 1.956-1.555 3.912-3.304 6.064-4.567 7.531-4.47 15.943-3.595 22.496 2.235 2.836 2.429 4.303 5.538 5.184 9.036.195.778.195 1.652.195 2.527-.098 3.012-1.956 5.052-4.597 5.052-2.543 0-4.303-2.235-4.205-5.247 0-.68.293-1.36.391-1.943.098-1.166.293-2.332.391-3.498.196-3.207-1.174-5.441-4.01-6.996-2.641-1.458-4.89-.389-7.042 1.069-.881.583-1.663 1.166-2.348 1.943-3.032 2.915-5.966 5.927-9.193 9.037 1.956 3.498 5.477 5.538 8.02 8.647-.587.681-1.174 1.458-1.859 2.235-3.227-2.137-5.672-4.955-8.607-7.676-.782.583-1.662 1.069-2.347 1.749-6.847 6.996-13.595 13.992-20.442 20.988-.685.68-1.369 1.458-2.054 2.235-1.663 2.04-2.641 4.275-1.761 6.996-.391.486-.88.874-1.271 1.36-3.717-3.692-7.531-7.287-11.248-10.98.391-1.36 1.369-1.166 2.152-1.457Z" data-color="2"/>
            <path fill="#ffffff" d="m189.716 710.437 10.269 13.992c-.293 1.069-1.271 1.069-2.054 1.166-2.249-.68-4.303-.291-6.259.972-1.37.874-2.837 1.846-4.206 2.818-11.737 8.453-23.572 17.004-35.309 25.457-1.369.972-2.641 2.138-4.01 3.11-2.347 1.749-2.738 4.178-1.956 6.801.293 1.069 1.076 2.041 1.565 3.11.293.485.293 1.165.587 2.137-3.13-2.526-8.705-9.814-15.65-20.21l1.076-1.069c3.13 2.818 6.358 2.72 9.683.388 3.521-2.526 7.14-5.052 10.661-7.579 8.901-6.413 17.801-12.826 26.604-19.239a104.296 104.296 0 0 0 5.184-3.983c1.858-1.458 2.836-3.304 2.543-5.733.391-.583.88-1.361 1.272-2.138Z" data-color="2"/>
            <path fill="#ffffff" d="M871.436 690.615c-5.183-1.36-11.932-4.664-13.497-6.705.587-.971 1.467-.388 2.249-.388 2.152 0 4.402.291 6.554 0 4.694-.583 8.313-4.178 9.193-8.842.49-2.624.196-5.15-1.956-6.899-2.054-1.652-4.694-2.138-7.14-.972-1.956.875-3.814 2.041-5.575 3.304-3.032 2.235-5.77 4.664-8.802 6.801-2.739 2.041-5.771 3.304-9.292 3.498-5.575.292-11.541-3.886-12.715-10.105-.783-4.275-.587-8.356 1.76-12.146 1.174-2.04 2.543-3.984 3.913-5.83 2.347-3.109 2.347-3.109 2.934-6.899 4.988 1.944 9.781 4.081 14.378 6.608-.196 1.36-.978.971-1.565.971-2.348 0-4.793-.291-7.042 0-4.793.583-8.607 3.013-10.564 7.579-.586 1.361-.978 2.915-.88 4.373.098 4.47 4.304 7.773 8.705 6.802 1.761-.389 3.521-1.264 5.086-2.235 2.25-1.458 4.401-3.11 6.553-4.664 2.054-1.458 4.108-3.012 6.26-4.276 4.89-3.012 9.781-2.332 14.084 1.069 4.401 3.401 6.064 7.968 4.891 13.409-.587 2.624-1.859 5.053-3.619 7.093-.881 1.069-1.663 2.138-2.641 3.11-1.272 1.36-1.565 2.818-.783 4.567 0 .097-.391.485-.489.777Z" data-color="2"/>
            <path fill="#ffffff" d="M563.342 88.96c.196 4.76-1.076 9.327-1.565 13.991 0 .389-.587.778-1.174 1.458-.489-1.555-.88-2.721-1.271-3.984-.489-1.652-.783-3.304-1.467-4.761-2.054-4.567-8.021-7.288-12.715-5.927-5.184 1.554-6.847 6.413-3.619 10.688 1.076 1.457 2.543 2.721 4.01 3.789 2.445 1.847 5.086 3.304 7.531 5.15 2.054 1.458 4.108 3.012 5.771 4.859 6.162 6.801 3.716 16.615-4.108 20.307-3.619 1.749-7.336 2.527-11.346 1.458-2.445-.68-4.89-1.458-7.238-2.235-3.227-1.166-3.227-1.166-7.042-.583.196-5.247.978-10.3 2.054-15.352 0-.195.587-.195 1.076-.389.489 1.943.88 3.887 1.467 5.83 1.467 4.567 4.304 7.968 8.901 9.62 1.271.388 2.64.583 3.912.68 3.032.194 5.379-1.069 6.749-3.595 1.467-2.721 1.369-5.636-.489-8.065-1.174-1.652-2.641-3.012-4.206-4.276-2.054-1.749-4.401-3.206-6.553-4.761l-4.695-3.789c-5.184-4.178-4.499-10.786-2.641-14.77 2.348-4.955 7.825-7.967 13.302-7.384 2.739.291 5.282 1.069 7.727 2.137 3.717 1.264 3.717 1.166 7.629-.097Z" data-color="2"/>
            <path fill="#ffffff" d="M935.305 527.861c2.445 4.858 4.499 11.757 4.695 15.838-.88.097-1.858.389-2.836.292-9.39-.778-18.877-1.749-28.267-2.527-10.954-.971-21.909-1.846-32.863-2.72-.978-.097-2.054 0-3.032 0-2.25.194-3.717 1.36-4.304 3.595-.293.972-.587 1.846-.978 3.206-.489-.68-1.076-.971-.978-1.36.489-6.51.978-13.02 1.565-19.53.098-.583.587-1.166 1.076-2.235.293 1.263.391 1.846.587 2.526.684 3.595 1.467 4.47 5.183 5.15 2.152.389 4.304.583 6.554.777 10.954.972 21.909 1.944 32.765 2.915 4.206.389 8.412.68 12.617 1.069.979.097 2.054.097 3.032 0 3.522-.194 4.304-1.069 4.402-4.567 0-.486 0-.971.098-1.457.097-.292.195-.389.684-.972Z" data-color="2"/>
            <path fill="#ffffff" d="M215.928 256.474c.88-2.72-.293-4.955-2.152-6.801-2.445-2.332-4.89-4.664-7.335-6.899-9.683-8.939-19.268-17.879-28.951-26.721-1.956-1.846-3.913-3.692-6.162-4.372-3.032-.195-3.326 3.012-5.869 3.789.685-4.47 2.837-8.162 4.108-12.049.391-1.166 1.174-2.234 2.054-3.692 1.37 1.069 2.445 1.846 3.423 2.721 13.987 12.923 27.876 25.846 41.862 38.769a55.763 55.763 0 0 0 3.815 3.207c2.151 1.554 4.303 1.749 6.553.097.685-.583 1.565-1.069 2.738-1.846-.88 2.72-4.694 7.093-12.812 15.06l-1.272-1.263Z" data-color="2"/>
            <path fill="#ffffff" d="M401.568 97.412c-1.37.778-1.957 1.07-2.446 1.36-2.543 1.458-3.227 3.207-2.151 5.734.489 1.068 1.173 2.04 1.858 3.012 5.184 6.899 10.368 13.7 15.551 20.502.196.291.489.389.783.583 1.271-.194.88-1.263.978-1.943 1.271-8.454 2.543-16.907 3.717-25.361.097-.291.097-.68.097-.971.098-1.652.587-3.401-.489-4.859-1.271-1.652-3.032-.971-4.694-.874-.196 0-.294-.486-.489-.778 3.618-1.749 9.487-3.303 14.182-3.595-.391.68-.587 1.36-.978 1.652-2.25 1.166-3.032 3.11-3.424 5.344-.586 3.304-1.173 6.607-1.662 9.911-1.467 9.911-2.935 19.919-4.402 29.83-.293 1.847-.391 3.693-1.565 5.636-.782-.583-1.76-.874-2.347-1.555-4.89-6.413-9.781-12.826-14.671-19.336-3.032-3.984-6.162-8.065-9.096-12.048-2.641-3.596-5.478-6.997-11.053-6.219.587-.972.685-1.652.978-1.652 6.358-1.652 12.715-3.206 19.073-4.761.391-.097.685.097 2.25.388Z" data-color="2"/>
            <path fill="#ffffff" d="M489.986 88.279c5.184-1.846 9.976-4.081 15.258-5.247 2.152 2.915-.783 6.121 1.076 8.842 1.467-.389 1.76-1.846 2.738-2.72 1.761-1.555 3.326-3.401 5.282-4.567 3.423-2.041 7.336-1.07 9.389 2.04 1.174 1.846 1.076 3.887-.293 5.636-1.369 1.651-3.423 2.04-5.477.971-1.37-.68-2.543-1.651-3.815-2.526-1.076-.777-2.249-.777-3.227.194-2.935 2.818-5.575 5.636-5.575 10.203 0 5.83-.489 11.757-.685 17.587-.098 1.652-.098 3.401.098 5.053.391 3.109 1.76 5.344 5.184 5.927.782.097 1.467.486 2.249.777-.293.486-.489.972-.587.972-4.205 0-8.411.194-12.617-.097-3.325-.292-6.749.194-11.052-1.166 2.152-.68 3.325-1.069 4.597-1.458 2.249-.583 3.423-2.137 3.619-4.372.097-1.652.097-3.304.195-5.053.294-7.676.489-15.449.783-23.126v-2.526c-.196-3.207-1.565-4.373-4.793-4.275-.782.097-1.663.874-2.347-1.07Z" data-color="2"/>
            <path fill="#ffffff" d="M872.904 433.415c-5.086.388-8.705-1.652-10.955-5.733-2.445-4.275-.88-9.328 3.423-11.66 1.957-.972 4.108-1.555 6.162-2.138 8.705-2.04 17.41-4.081 26.115-6.024 1.467-.389 2.934-.777 4.206-1.166.391-2.526-1.272-4.567-.489-7.288 2.152.972 3.227 2.818 4.89 3.887 1.761 1.069 3.424 2.235 5.184 3.012 1.663.778 3.521 1.069 5.184 1.846 1.76.778 4.01.098 5.966 2.041-4.89 2.235-10.074 2.138-14.769 4.178 0 3.595 1.956 6.705 1.761 10.591-.978.097-1.663.195-2.739.389-.88-3.401-1.76-6.51-2.543-9.62-1.174-.874-2.054-.291-3.032-.097-8.216 1.846-16.432 3.693-24.648 5.636-2.151.486-4.205 1.166-6.259 1.943-3.717 1.361-3.228 6.219-1.174 7.968a187.16 187.16 0 0 1 3.717 2.235Z" data-color="2"/>
            <path fill="#ffffff" d="M88.68 427.78c2.64 1.554 5.477 1.36 8.02 1.846 7.434 1.457 14.965 2.623 22.398 3.886 1.272.195 2.739.389 4.011.292 3.521-.292 5.183-3.207 3.912-6.607-.294-.778-.783-1.458-1.174-2.138-.391-.68-.88-1.263-1.565-2.332 3.423 1.36 5.282 2.818 6.651 5.441 1.174 2.138 1.858 4.373 1.467 6.802-.684 4.275-3.912 7.385-8.313 7.287-4.011-.097-8.021-.777-12.031-1.457-8.118-1.36-16.236-2.818-24.354-4.275-1.76 1.943-1.174 4.566-2.152 6.801-.587-.291-1.271-.388-1.369-.68-2.445-6.607-6.749-11.466-12.715-15.158-.685-.389-1.565-.777-1.271-2.235 4.792.097 9.389 1.846 14.182 1.944 1.369-.778 1.173-2.332 1.467-3.498.489-2.138.782-4.276 1.271-6.608.783 0 1.467-.097 2.054.097.978.292 1.076 1.166.88 2.041-.39 2.915-.88 5.636-1.369 8.551Z" data-color="2"/>
            <path fill="#ffffff" d="M612.246 105.186c-2.446-.874-4.5-1.555-6.651-2.332.391-.583.587-1.263.88-1.36 6.847-1.652 12.226-5.442 16.53-10.98.489-.583 1.173-.875 2.347-1.652-.587 5.538-2.837 9.911-3.717 14.867 2.543 1.554 5.673 1.846 8.412 2.817.489.195.88.486 1.173.875.196.194.294.583.196.874-.098.486-.293.972-.489 1.652-3.521-.194-6.651-1.943-10.368-2.429-.391.875-.782 1.749-1.076 2.721-2.445 8.55-4.988 17.101-7.433 25.652-.391 1.457-.783 2.915-.978 4.469-.391 3.596 2.054 5.83 5.575 5.345.978-.098 1.858-.584 2.836-1.069.685-.292 1.37-.778 2.446-1.361-1.272 3.11-2.25 4.179-4.989 5.539-2.836 1.36-5.673 2.137-8.802.874-3.521-1.457-5.771-4.372-5.673-8.162.098-1.943.489-3.984 1.076-5.927 2.543-9.231 5.281-18.364 7.922-27.595.294-.68.489-1.555.783-2.818Z" data-color="2"/>
            <path fill="#ffffff" d="M129.172 560.509c.979 1.36 1.37 1.652 1.468 2.04 1.662 6.413 3.716 18.171 3.814 21.669-.293-.098-.782 0-.88-.195-.391-.68-.685-1.457-1.076-2.235-1.467-2.817-3.13-3.595-6.162-3.109-5.477.972-10.954 2.041-16.432 3.109-3.814.778-7.629 1.555-11.345 2.332-.783.195-1.663.292-2.446.583-2.347.875-3.032 2.235-2.543 4.762.196.971.49 1.846.88 3.012-.88-.292-1.466-.195-1.662-.486-3.032-3.595-7.042-10.591-7.825-13.506 1.467-.389 2.837-.778 4.304-1.166l3.814-.875c.098-1.457-.978-1.263-1.565-1.652-1.956-1.263-4.108-2.332-6.064-3.595-1.565-1.069-2.543-2.623-3.13-4.469-.782-2.721.294-5.636 2.543-7.094 1.663-1.068 3.717-.971 5.184.098 1.565 1.166 2.25 2.915 1.565 4.858-.391 1.263-.978 2.526-1.467 3.789-.489 1.361-.293 2.721.978 3.596 3.326 2.234 6.651 3.789 10.857 2.915 6.455-1.361 12.911-2.527 19.366-3.79 1.174-.194 2.249-.583 3.423-.972 2.641-.971 4.206-2.72 4.206-5.635 0-.875.098-1.846.195-3.984Z" data-color="2"/>
            <path fill="#ffffff" d="M905.572 433.901c.684.194 1.075.194 1.173.389a500.084 500.084 0 0 1 6.847 12.34c.195.389.097.972.097 1.652-2.543 1.457-5.575.68-8.02 1.457-.489 1.166.294 1.361.783 1.652 1.858 1.166 3.716 2.235 5.477 3.498 1.663 1.166 2.836 2.915 3.423 4.858 1.174 3.984-1.662 7.968-5.379 7.871-3.13 0-5.477-3.595-4.01-6.024.88-1.555 1.565-3.304 2.347-4.956-.685-2.526-2.641-3.401-4.597-4.47-2.054-1.068-4.108-2.04-6.749-1.651-6.651.971-13.399 1.749-20.05 2.623-1.174.194-2.348.292-3.424.68-2.934.778-4.694 2.624-4.792 5.733 0 .972.098 1.943-.88 2.721-1.565-3.693-3.522-18.851-2.935-23.223.392.389.881.583.978.972 2.152 5.247 2.543 5.538 8.216 5.149 2.054-.194 4.01-.583 6.064-.777 6.162-.777 12.422-1.457 18.584-2.235a36.8 36.8 0 0 0 4.499-.874c2.347-.68 3.032-2.041 2.641-4.567-.098-.486-.294-.972-.391-1.458-.098-.388 0-.777.098-1.36Z" data-color="2"/>
            <path fill="#ffffff" d="M115.969 665.643c.684 2.235 1.369 4.47 2.151 6.996-2.543-.291-3.814-2.137-5.575-2.817-1.858-.778-3.716-1.652-5.575-2.332-1.76-.583-3.619-.778-5.477-1.069-1.956-.292-3.912-.292-6.553-.486.88-.875 1.174-1.458 1.663-1.652 4.01-1.652 8.118-3.304 12.323-5.053-.489-3.595-2.738-6.51-3.423-10.105a194.66 194.66 0 0 1 2.25-1.263c2.445 2.915 2.64 6.899 5.086 9.911 9.683-3.887 19.366-7.871 29.049-11.757a11.504 11.504 0 0 0 2.64-1.458c2.935-2.04 3.032-5.344.196-7.676-.88-.68-2.054-.972-3.13-1.555-.489-.291-.978-.68-1.956-1.457 4.988-.68 8.607.777 11.541 3.789 4.304 4.373 3.521 10.494-1.76 13.701-2.25 1.36-4.793 2.429-7.336 3.401-7.629 3.109-15.356 6.121-22.985 9.231-.782.583-1.858 1.068-3.129 1.651Z" data-color="2"/>
            <path fill="#ffffff" d="M365.183 154.935c-.196-1.166.88-1.263 1.565-1.555 2.543-1.263 3.227-3.303 2.738-5.83a19.257 19.257 0 0 0-.88-3.401c-2.641-7.579-5.281-15.255-7.922-22.834a22.686 22.686 0 0 0-1.859-4.178c-.978-1.846-2.249-2.235-4.205-1.652-.685.195-1.174.583-1.859.875-.391.194-.88.097-1.858.194.489-.874.685-1.457 1.076-1.846 6.553-6.219 8.705-7.871 12.128-9.134a876.684 876.684 0 0 1 5.184 14.672c2.152 6.316 4.303 12.729 6.553 19.045.391 1.263.88 2.526 1.467 3.79 1.761 4.178 2.641 4.664 7.238 4.469.489 0 .978.097 1.76.195-.489.583-.684.971-1.076 1.166-6.944 2.72-17.116 5.927-20.05 6.024Z" data-color="2"/>
            <path fill="#ffffff" d="M577.328 97.412c3.717-1.749 12.618-2.915 16.628-2.235-.196 1.264-.294 2.624-.587 3.79-2.739 10.883-5.477 21.765-8.118 32.648-.391 1.458-.587 2.915-.685 4.47-.195 2.235.587 3.886 2.837 4.858.782.292 1.467.68 2.151.972-.097.971-.489 1.263-1.369 1.069-6.553-1.652-13.106-3.207-19.561-4.859-.196-.097-.294-.583-.489-.874.489-1.069 1.369-.486 2.053-.486 3.424 0 4.5-.583 5.771-3.692.294-.778.489-1.555.783-2.43a8155.045 8155.045 0 0 0 5.868-23.417c.196-.68.293-1.263.391-1.943.881-4.178.978-7.093-4.988-7.288-.098 0-.196-.194-.685-.583Z" data-color="2"/>
            <path fill="#ffffff" d="M812.947 698.291c3.228-5.344 6.456-10.591 9.683-15.935 0-.097.294 0 .489 0 1.272.971 0 1.846-.195 2.623-.783 2.429-.098 4.276 1.76 5.83a15.744 15.744 0 0 0 2.935 2.041c6.748 4.081 13.595 8.065 20.441 12.146.685.388 1.468.777 2.25 1.166 4.499 2.234 5.184 2.04 7.727-2.624.098-.194.489-.389.782-.486.294.195.783.389.783.486-.294 3.012-.489 6.024-1.174 8.939-.489 2.235 0 4.762-2.054 6.899-.978-.486-1.956-.874-2.934-1.457-8.999-5.344-17.899-10.689-26.897-16.033-1.761-1.069-3.521-2.04-5.282-3.012-2.445-1.263-4.89-1.36-7.042.583-.489-.389-.88-.777-1.272-1.166Z" data-color="2"/>
            <path fill="#ffffff" d="M138.562 400.864c-1.271 6.316-2.543 12.632-4.108 18.947-1.76-.388-1.271-1.36-1.271-2.04 0-3.498-.685-4.664-3.717-5.733-1.272-.486-2.543-.777-3.912-1.069-7.238-1.554-14.574-3.109-21.812-4.567-1.956-.388-4.01-.583-6.064-.68-2.25-.097-3.032.778-3.423 2.818-.195.972-.195 1.943-.293 3.207-.587-.292-1.272-.389-1.37-.681-.88-4.469-1.76-8.842-2.445-13.311-.098-.778.196-1.555.294-2.721 5.38 1.069 10.465 2.138 15.551 3.206 7.922 1.652 15.943 3.207 23.767 4.956 3.032.68 5.282.097 7.043-2.429.586 0 1.173.097 1.76.097Z" data-color="2"/>
            <path fill="#ffffff" d="M875.642 721.125c2.739.098 4.988 2.721 4.793 5.539-.196 2.526-2.641 4.761-5.086 4.761-2.641-.097-5.184-2.721-5.086-5.344 0-2.721 2.64-5.053 5.379-4.956Z" data-color="2"/>
            <path fill="#ffffff" d="M595.129 80.214c-2.641.097-5.184-2.526-5.184-5.15 0-2.526 2.25-4.858 4.793-5.053 2.739-.194 5.282 2.138 5.379 4.859.098 2.817-2.151 5.247-4.988 5.344Z" data-color="2"/>
            <path fill="#ffffff" d="M348.36 87.987c.098-2.623 2.739-5.052 5.379-4.955 2.739.097 5.086 2.72 4.891 5.441-.196 2.526-2.543 4.664-5.086 4.664-2.641 0-5.184-2.526-5.184-5.15Z" data-color="2"/>
            <path fill="#ffffff" d="M75.183 394.936c.097 2.915-2.054 5.053-5.086 5.053-2.641 0-4.989-2.041-5.086-4.567-.196-2.526 2.347-5.344 4.89-5.441 2.836-.292 5.282 2.04 5.282 4.955Z" data-color="2"/>
            <path fill="#ffffff" d="M754.165 234.418c.391-.486.879-.875 1.27-1.361 1.466 1.555 2.835 3.11 4.301 4.664-.098.972-.684 1.555-1.564.778-1.368-1.166-2.639-2.721-4.007-4.081Z" data-color="2"/>
            <path fill="#ffffff" d="M197.834 725.595c.879-.194 1.759-.097 2.052-1.166 1.271 1.555 2.541 3.109 3.714 4.664.098.194-.391.777-.684 1.458-1.857-1.749-3.421-3.304-5.082-4.956Z" data-color="2"/>
            <path fill="#ffffff" d="M189.713 710.437a26.028 26.028 0 0 1-1.271 2.235 318.382 318.382 0 0 0-3.03-5.83c.88-.972 1.564-.583 1.857-.097.88 1.166 1.662 2.429 2.444 3.692Z" data-color="2"/>
            <path fill="#ffffff" d="M266.787 128.506c-.195-.875-.195-1.944-1.27-2.332 1.563-1.264 3.029-2.527 4.495-3.79 1.271.292 1.76.875.978 1.749-1.368 1.555-2.737 3.012-4.203 4.373Z" data-color="2"/>
            <path fill="#ffffff" d="M255.541 133.364c.586 1.458 2.053.583 3.032 1.069-2.25.972-4.402 2.04-6.651 3.012-.881-.583-.587-1.36-.098-1.749 1.174-.777 2.445-1.457 3.717-2.332Z" data-color="2"/>
            <path fill="#ffffff" d="M214.947 162.709c.684.388 1.368.68 2.053 1.069-1.76.971-3.421 1.943-5.083 2.915-.977-.389-1.172-1.069-.684-1.555 1.173-.875 2.444-1.652 3.714-2.429Z" data-color="2"/>
            <path fill="#ffffff" d="M231.186 153.478c-.294-.583-.587-1.263-.88-1.846 1.173-1.652 2.834-2.526 4.496-3.304.977.875.684 1.458.195 1.944-1.27 1.068-2.639 2.137-3.811 3.206Z" data-color="2"/>
            <path fill="#ffffff" d="M357.161 157.753c-.489-.389-.978-.777-1.466-1.069-.489-.388-.978-.68-1.466-1.069 1.954-.194 3.811-.388 5.961-.583.685.583.587 1.166-.391 1.652-.781.486-1.759.68-2.638 1.069Z" data-color="2"/>
            <path fill="#ffffff" d="M845.613 363.454c-.391.778-.782 1.458-1.173 2.235-.391-.68-.88-1.36-.977-2.137-.196-1.069-1.857-2.624-.098-3.207 1.466-.486 1.466 1.749 2.15 2.624.098.097 0 .388.098.485Z" data-color="2"/>
            <path fill="#ffffff" d="M167.219 329.155c-.391-.389-.782-.778-1.271-1.166.782-1.166 1.564-2.429 2.346-3.595 1.368.097 1.564.874 1.173 1.651-.587 1.166-1.466 2.138-2.248 3.11Z" data-color="2"/>
            <path fill="#ffffff" d="M744.966 222.271c-.781.292-1.856.098-2.15 1.167-1.466-.972-2.932-1.847-3.714-4.179 2.737.195 4.007 2.332 5.864 3.012Z" data-color="2"/>
            <path fill="#ffffff" d="m133.767 748.818-1.075 1.069c-1.27-.972-2.443-2.041-2.15-4.081 2.053.388 2.541 1.749 3.225 3.012Z" data-color="2"/>
            <path fill="#ffffff" d="m333.687 168.635-2.933-.874c1.271-.389 2.444-.875 3.714-1.166.294-.097.782.291 1.173.486-.195.388-.293.874-.684 1.166-.293.194-.782.291-1.27.388Z" data-color="2"/>
            <path fill="#ffffff" d="M159.98 661.174c-.391.388-.782.874-1.173 1.263-.489-.972-.977-1.944-1.662-3.11 2.248-.777 2.542.486 2.835 1.847Z" data-color="2"/>
            <path fill="#ffffff" d="M298.183 137.445c.587.292 1.173.68 1.76.972l-1.075 1.069c-.88.777-1.76.971-2.444-.583.587-.389 1.173-.972 1.759-1.458Z" data-color="2"/>
            <path fill="#ffffff" d="M812.946 698.291c.391.389.782.777 1.075 1.166-.098.292-.195.583-.391.875-.782.971-.782.874-2.541.68.684-.972 1.271-1.846 1.857-2.721Z" data-color="2"/>
            <path fill="#ffffff" d="M138.561 400.864h-1.759c.293-.875.488-1.749.782-2.624.097-.194.586-.291.781-.194.196.097.587.389.587.583-.098.68-.293 1.457-.391 2.235Z" data-color="2"/>
            <path fill="#ffffff" d="M123.695 520.865c.587 0 1.075 0 1.662-.097.097.583.195 1.166.195 1.846 0 .194-.391.68-.586.68-.391-.097-.978-.291-1.173-.583-.098-.583 0-1.263-.098-1.846Z" data-color="2"/>
            <path fill="#ffffff" d="m215.927 256.474 1.173 1.166c-.489 1.069-1.173 2.04-2.541 1.943 0-1.554 0-1.554 1.368-3.109Z" data-color="2"/>
            <path fill="#ffffff" d="m316.571 174.951 1.075 1.069c-.391.292-.684.778-1.075.875-.586.097-1.173-.097-1.759-.195.293-.485.489-1.068.88-1.457.097-.292.586-.194.879-.292Z" data-color="2"/>
            <path fill="#ffffff" d="m884.248 348.297-1.271 1.263c-.391-.486-.88-.972-1.075-1.555-.098-.291.293-.874.684-1.166.098-.097.684.097.88.292.293.291.488.777.782 1.166Z" data-color="2"/>
            <path fill="#29317D" d="M165.261 328.183c-1.369 1.263-2.737 1.458-4.105.097 1.368 0 2.736 0 4.105-.097Z" data-color="1"/>
            <path fill="#ffffff" d="M354.228 155.518c-.391-.291-.685-.583-1.075-.777.293.291.684.583 1.075.777Z" data-color="2"/>
            <path fill="#ffffff" d="M124.771 516.006c0-.388-.098-.874-.098-1.263.098.292.294.583.294.875.097.097-.098.291-.196.388Z" data-color="2"/>
            <path fill="#ffffff" d="M125.162 518.921c-.097-.486-.195-.874-.293-1.36.098.389.196.874.293 1.36Z" data-color="2"/>
            <path fill="#ffffff" d="M424.022 887.122c-8.338 14.882-16.675 29.854-25.013 44.735-.091.091-.272.182-.544.454-2.175.545-4.35-.907-6.615-1.27-2.085-.363-4.169-1.18-6.344-1.815.272-18.057.544-35.933.906-53.991-1.54.817-1.54 2.178-1.812 3.358-3.535 12.976-6.978 26.042-10.422 39.018a876.327 876.327 0 0 0-2.175 7.713c-2.266.091-4.078-.726-5.981-1.27-1.904-.545-3.897-.998-5.982-1.634 0-.816-.09-1.451 0-1.996 1.36-6.805 16.675-62.339 17.944-65.424 6.525 1.361 12.869 3.357 19.303 5.082.997 1.542.635 3.175.635 4.718 0 13.339-.091 26.678-.182 40.017 0 1.179-.09 2.359.091 3.448.453.091.634.091.725.091.181-.091.272-.182.362-.273.091-.09.182-.272.272-.363.272-.363.453-.816.725-1.179 7.432-12.885 14.772-25.861 22.203-38.747.091-.09.272-.181.725-.544 6.435 1.27 12.96 3.267 19.847 5.263-1.631 7.622-3.897 14.972-5.8 22.322-1.903 7.622-4.078 15.154-6.162 22.685-1.994 7.35-3.806 14.791-6.163 22.413-4.078-1.089-7.975-2.177-12.053-3.266.272-1.361.363-2.36.635-3.448a7535.365 7535.365 0 0 1 11.6-43.102c.181-.636.181-1.271.271-1.815 1.179-1.18.997-2.632 1.179-4.265-1.541.726-1.904 1.906-2.175 3.085Z" data-color="2"/>
            <path fill="#ffffff" d="M517.17 889.742c.445.625-1.428.634-1.431.009-.003-.528-.244-1.381-.247-1.871-.003-.604-.406-2.498-.42-4.998-.002-.363.003.498 0 0l-.015-2.5c.086-.84-.008-1.504-.014-2.5-.014-2.5.013-.448-.014-2.5-.008-.551.385-1.185.475-1.277 4.255-.75 8.602-1.319 13.226-.983 1.053 9.794 1.561 19.41 2.342 29.115.779 9.523 1.378 19.048 2.249 28.843 9.059-.687 17.936-1.373 26.452-1.966 1.262-1.187.802-2.364.706-3.362-.401-6.712-.893-13.424-1.384-20.137-.493-6.893-1.076-13.786-1.659-20.589-.198-2.993-.577-5.895-.776-8.888-.099-1.542-.018-3.085-.026-4.628 3.98-1.293 7.965-1.679 13.496-1.257 1.74 19.046 2.757 38.278 4.589 57.505l5.618-.032c.776 8.797 1.641 17.503 1.874 26.486-3.802.838-7.338.586-11.142.88-.482-4.988-.963-9.795-1.444-14.783-8.428.049-16.67 1.003-24.823 1.594-8.062.591-16.125 1.091-24.548 1.956-1.144-9.884-1.652-19.41-2.341-28.843-.689-9.524-1.74-19.077-2.429-28.601-.048-.661 1.273 2.748 1.686 3.327Z" data-color="2"/>
            <path fill="#ffffff" d="M605.242 917.711c-.543 5.626-.997 10.889-1.54 16.515-4.26 1.815-8.972 2.722-13.685 3.902-.362-4.356 5.075-56.169 7.794-74.226 4.35-1.724 9.063-2.45 13.594-3.902 2.809 2.631 39.15 50.815 45.222 59.889-4.441 1.996-9.153 2.631-13.866 4.083-3.806-4.174-6.616-9.165-10.422-13.611-8.881 2.359-17.762 4.9-27.097 7.35Zm3.897-39.2c-.997 4.174-2.628 23.139-2.265 26.406 3.806-.363 14.318-3.267 17.762-4.81-2.628-4.627-13.05-19.146-15.497-21.596Z" data-color="2"/>
            <path fill="#ffffff" d="M504.95 881.496c-7.885 14.791-15.679 29.582-23.563 44.463-2.356 4.446-4.894 8.711-8.066 12.704-3.715 4.537-8.428 6.352-14.137 5.626-2.447-.363-4.894-.817-7.431-1.271-.816-3.538.362-6.714.362-9.709 1.088-.907 1.994-.363 2.81-.272 1.54.091 3.171.272 4.712.181 3.172-.09 5.8-1.27 7.341-4.264.815-1.543 1.54-3.086 2.265-4.628-7.34-17.15-14.5-34.119-21.659-50.906.181-.453.181-.635.272-.726a.694.694 0 0 1 .453-.181c4.622.272 9.334.272 14.228.998 4.803 11.978 8.791 24.319 13.503 36.206.453.09.635.181.816.09.09 0 .272-.181.362-.272 5.257-11.161 10.513-22.413 15.86-33.755h5.165c2.65-.091 4.75 0 7.522-.091 4.989.091 1.735 1.811 0 4.718-.362.363-.544.726-.815 1.089Z" data-color="2"/>
            <path fill="#29317D" d="M424.022 887.122c.271-1.179.725-2.359 2.175-3.266-.182 1.724 0 3.176-1.179 4.264-.362-.363-.725-.635-.996-.998Z" data-color="1"/>
            <path fill="#29317D" d="M506.037 883.039c.091.454.181.817.272 1.27-.091-.363-.181-.816-.272-1.27Z" data-color="1"/>
            <path fill="#29317D" d="M446.514 793h24.7v-4h-15.95l11.15-11.35a18.3 18.3 0 0 0 3.35-4.75c.866-1.767 1.3-3.55 1.3-5.35 0-1.067-.217-2.183-.65-3.35-.434-1.167-1.1-2.25-2-3.25-.9-1.033-2.05-1.867-3.45-2.5-1.4-.667-3.067-1-5-1-2.4 0-4.467.533-6.2 1.6-1.7 1.033-3 2.5-3.9 4.4-.9 1.867-1.35 4.05-1.35 6.55h4.25c0-1.767.283-3.283.85-4.55.566-1.3 1.383-2.283 2.45-2.95 1.1-.7 2.4-1.05 3.9-1.05 1.066 0 2.016.183 2.85.55.833.367 1.533.85 2.1 1.45.6.6 1.05 1.267 1.35 2 .3.733.45 1.483.45 2.25 0 .933-.15 1.833-.45 2.7-.267.833-.684 1.667-1.25 2.5a20.3 20.3 0 0 1-1.95 2.45L446.514 793Zm31.466-17.5c0-2.033.2-3.9.6-5.6.4-1.733.984-3.217 1.75-4.45.767-1.267 1.684-2.233 2.75-2.9 1.1-.7 2.317-1.05 3.65-1.05 1.367 0 2.584.35 3.65 1.05 1.067.667 1.984 1.633 2.75 2.9.767 1.233 1.35 2.717 1.75 4.45.4 1.7.6 3.567.6 5.6 0 2.033-.2 3.917-.6 5.65-.4 1.7-.983 3.183-1.75 4.45-.766 1.233-1.683 2.2-2.75 2.9-1.066.667-2.283 1-3.65 1-1.333 0-2.55-.333-3.65-1-1.066-.7-1.983-1.667-2.75-2.9-.766-1.267-1.35-2.75-1.75-4.45-.4-1.733-.6-3.617-.6-5.65Zm-4.25 0c0 3.5.55 6.6 1.65 9.3 1.1 2.7 2.617 4.833 4.55 6.4 1.967 1.533 4.234 2.3 6.8 2.3 2.567 0 4.817-.767 6.75-2.3 1.967-1.567 3.5-3.7 4.6-6.4 1.1-2.7 1.65-5.8 1.65-9.3 0-3.5-.55-6.6-1.65-9.3-1.1-2.7-2.633-4.817-4.6-6.35-1.933-1.567-4.183-2.35-6.75-2.35-2.566 0-4.833.783-6.8 2.35-1.933 1.533-3.45 3.65-4.55 6.35-1.1 2.7-1.65 5.8-1.65 9.3Zm31.981 0c0-2.033.2-3.9.6-5.6.4-1.733.983-3.217 1.75-4.45.767-1.267 1.683-2.233 2.75-2.9 1.1-.7 2.317-1.05 3.65-1.05 1.367 0 2.583.35 3.65 1.05 1.067.667 1.983 1.633 2.75 2.9.767 1.233 1.35 2.717 1.75 4.45.4 1.7.6 3.567.6 5.6 0 2.033-.2 3.917-.6 5.65-.4 1.7-.983 3.183-1.75 4.45-.767 1.233-1.683 2.2-2.75 2.9-1.067.667-2.283 1-3.65 1-1.333 0-2.55-.333-3.65-1-1.067-.7-1.983-1.667-2.75-2.9-.767-1.267-1.35-2.75-1.75-4.45-.4-1.733-.6-3.617-.6-5.65Zm-4.25 0c0 3.5.55 6.6 1.65 9.3 1.1 2.7 2.617 4.833 4.55 6.4 1.967 1.533 4.233 2.3 6.8 2.3s4.817-.767 6.75-2.3c1.967-1.567 3.5-3.7 4.6-6.4 1.1-2.7 1.65-5.8 1.65-9.3 0-3.5-.55-6.6-1.65-9.3-1.1-2.7-2.633-4.817-4.6-6.35-1.933-1.567-4.183-2.35-6.75-2.35s-4.833.783-6.8 2.35c-1.933 1.533-3.45 3.65-4.55 6.35-1.1 2.7-1.65 5.8-1.65 9.3Zm29.73-9.05c0 1.367.234 2.6.7 3.7a8.113 8.113 0 0 0 1.95 2.75c.867.767 1.884 1.35 3.05 1.75 1.2.4 2.517.6 3.95.6 1.434 0 2.734-.2 3.9-.6 1.2-.4 2.217-.983 3.05-1.75a7.79 7.79 0 0 0 2-2.75c.467-1.1.7-2.333.7-3.7 0-1.667-.433-3.167-1.3-4.5-.833-1.367-1.983-2.45-3.45-3.25-1.433-.8-3.066-1.2-4.9-1.2-1.833 0-3.483.4-4.95 1.2a9.5 9.5 0 0 0-3.45 3.25c-.833 1.333-1.25 2.833-1.25 4.5Zm4.05.5c0-1.1.234-2.083.7-2.95a5.241 5.241 0 0 1 2-2c.867-.5 1.834-.75 2.9-.75 1.1 0 2.067.25 2.9.75a4.894 4.894 0 0 1 1.95 2c.5.867.75 1.85.75 2.95s-.266 2.067-.8 2.9a5.247 5.247 0 0 1-2.05 1.95c-.833.467-1.75.7-2.75.7s-1.933-.233-2.8-.7a5.75 5.75 0 0 1-2.05-1.95c-.5-.833-.75-1.8-.75-2.9Zm-5.3 16.55c0 1.367.267 2.65.8 3.85a10.879 10.879 0 0 0 2.3 3.2c1 .933 2.15 1.667 3.45 2.2 1.334.5 2.784.75 4.35.75 1.567 0 3-.25 4.3-.75 1.334-.533 2.484-1.267 3.45-2.2 1-.933 1.767-2 2.3-3.2.567-1.2.85-2.483.85-3.85 0-1.6-.3-3.017-.9-4.25-.566-1.267-1.366-2.317-2.4-3.15-1-.867-2.166-1.517-3.5-1.95-1.3-.433-2.666-.65-4.1-.65-1.433 0-2.816.217-4.15.65a10.616 10.616 0 0 0-3.5 1.95c-1 .833-1.8 1.883-2.4 3.15-.566 1.233-.85 2.65-.85 4.25Zm4.05-.5c0-1.267.317-2.4.95-3.4a7.473 7.473 0 0 1 2.55-2.45c1.067-.6 2.184-.9 3.35-.9 1.167 0 2.267.3 3.3.9a6.916 6.916 0 0 1 2.55 2.45c.667 1 1 2.133 1 3.4 0 1.433-.333 2.65-1 3.65a6.286 6.286 0 0 1-2.55 2.3 7.096 7.096 0 0 1-3.3.8 7.405 7.405 0 0 1-3.35-.8 6.751 6.751 0 0 1-2.55-2.3c-.633-1-.95-2.217-.95-3.65Z" data-color="1"/>
        </g>
        <defs fill="none">
            <clipPath id="4e8e10c3-cbd3-49c6-8955-38f57a05a0e9">
                <path fill="#ffffff" d="M1000 0v1000H0V0h1000z"/>
            </clipPath>
        </defs>
    </g>
</svg>
